<?xml version="1.0" encoding="UTF-8"?>
<svg xmlns="http://www.w3.org/2000/svg" xmlns:xlink="http://www.w3.org/1999/xlink" width="128px" height="128px" viewBox="0 0 128 128" version="1.1">
<defs>
<linearGradient id="linear0" gradientUnits="userSpaceOnUse" x1="48" y1="204" x2="464" y2="204" gradientTransform="matrix(0.211538,0,0,0.25,9.845909,56.999985)">
<stop offset="0" style="stop-color:rgb(59.607846%,41.568628%,26.666668%);stop-opacity:1;"/>
<stop offset="0.0454544" style="stop-color:rgb(80.392158%,67.058825%,56.078434%);stop-opacity:1;"/>
<stop offset="0.090909" style="stop-color:rgb(70.980394%,51.372552%,35.294119%);stop-opacity:1;"/>
<stop offset="0.909091" style="stop-color:rgb(70.980394%,51.372552%,35.294119%);stop-opacity:1;"/>
<stop offset="0.954545" style="stop-color:rgb(80.392158%,67.058825%,56.078434%);stop-opacity:1;"/>
<stop offset="1" style="stop-color:rgb(59.607846%,41.568628%,26.666668%);stop-opacity:1;"/>
</linearGradient>
</defs>
<g id="surface9802">
<path style=" stroke:none;fill-rule:nonzero;fill:url(#linear0);" d="M 28 36 L 100 36 C 104.417969 36 108 39.582031 108 44 L 108 112 C 108 116.417969 104.417969 120 100 120 L 28 120 C 23.582031 120 20 116.417969 20 112 L 20 44 C 20 39.582031 23.582031 36 28 36 Z M 28 36 "/>
<path style=" stroke:none;fill-rule:nonzero;fill:rgb(80.392158%,67.058825%,56.078434%);fill-opacity:1;" d="M 28 8 L 100 8 C 104.417969 8 108 11.304688 108 15.382812 L 108 96.617188 C 108 100.695312 104.417969 104 100 104 L 28 104 C 23.582031 104 20 100.695312 20 96.617188 L 20 15.382812 C 20 11.304688 23.582031 8 28 8 Z M 28 8 "/>
<path style=" stroke:none;fill-rule:nonzero;fill:rgb(69.01961%,48.235294%,30.980393%);fill-opacity:1;" d="M 28 60 L 100 60 L 100 80 L 28 80 Z M 28 60 "/>
<path style=" stroke:none;fill-rule:nonzero;fill:rgb(69.01961%,48.235294%,30.980393%);fill-opacity:1;" d="M 28 16 L 100 16 L 100 38 L 28 38 Z M 28 16 "/>
<path style=" stroke:none;fill-rule:nonzero;fill:rgb(74.117649%,56.862748%,42.352942%);fill-opacity:1;" d="M 28 32 L 100 32 L 100 52 L 28 52 Z M 28 32 "/>
<path style=" stroke:none;fill-rule:nonzero;fill:rgb(74.117649%,56.862748%,42.352942%);fill-opacity:1;" d="M 28 76 L 100 76 L 100 96 L 28 96 Z M 28 76 "/>
<path style=" stroke:none;fill-rule:nonzero;fill:rgb(20.784314%,51.764709%,89.411765%);fill-opacity:1;" d="M 92 18 L 84 18 L 84 52 L 92 52 Z M 92 18 "/>
<path style=" stroke:none;fill-rule:nonzero;fill:rgb(100%,47.058824%,0%);fill-opacity:1;" d="M 81.9375 21 C 80.855469 21.015625 80 21.460938 80 22 L 80 52 L 84 52 L 84 22 C 84 21.449219 83.105469 21 82 21 C 81.980469 21 81.957031 21 81.9375 21 Z M 81.9375 21 "/>
<path style=" stroke:none;fill-rule:nonzero;fill:rgb(97.647059%,94.117647%,41.960785%);fill-opacity:1;" d="M 77.9375 21 C 76.855469 21.015625 76 21.460938 76 22 L 76 52 L 80 52 L 80 22 C 80 21.449219 79.105469 21 78 21 C 77.980469 21 77.957031 21 77.9375 21 Z M 77.9375 21 "/>
<path style=" stroke:none;fill-rule:nonzero;fill:rgb(10.196079%,37.254903%,70.588237%);fill-opacity:1;" d="M 76 18 L 72 18 L 72 52 L 76 52 Z M 76 18 "/>
<path style=" stroke:none;fill-rule:nonzero;fill:rgb(100%,100%,100%);fill-opacity:1;" d="M 100 22 L 92 22 L 92 52 L 100 52 Z M 100 22 "/>
<path style=" stroke:none;fill-rule:nonzero;fill:rgb(100%,47.058824%,0%);fill-opacity:1;" d="M 100 41 L 92 41 L 92 52 L 100 52 Z M 100 41 "/>
<path style=" stroke:none;fill-rule:nonzero;fill:rgb(10.196079%,37.254903%,70.588237%);fill-opacity:1;" d="M 84 22 L 92 22 L 92 28 L 84 28 Z M 84 22 "/>
<path style=" stroke:none;fill-rule:nonzero;fill:rgb(10.196079%,37.254903%,70.588237%);fill-opacity:1;" d="M 84 47 L 92 47 L 92 49.984375 L 84 49.984375 Z M 84 47 "/>
<path style=" stroke:none;fill-rule:nonzero;fill:rgb(10.196079%,37.254903%,70.588237%);fill-opacity:1;" d="M 84 44 L 92 44 L 92 45 L 84 45 Z M 84 44 "/>
<path style=" stroke:none;fill-rule:nonzero;fill:rgb(100%,47.058824%,0%);fill-opacity:1;" d="M 100 37 L 92 37 L 92 39 L 100 39 Z M 100 37 "/>
<path style=" stroke:none;fill-rule:nonzero;fill:rgb(92.941177%,20%,23.137255%);fill-opacity:1;" d="M 65 19 C 63.792969 19 62.582031 19.046875 61.5 19.132812 C 59.335938 19.3125 58.003906 19.644531 58 20 L 58 52 L 72 52 L 72 20 C 72 19.644531 70.664062 19.3125 68.5 19.132812 C 67.417969 19.046875 66.210938 19 65 19 Z M 65 19 "/>
<path style=" stroke:none;fill-rule:nonzero;fill:rgb(75.294119%,10.980392%,15.686275%);fill-opacity:1;" d="M 62.5 40.5 C 62.5 41.878906 63.621094 43 65 43 C 66.382812 43 67.5 41.878906 67.5 40.5 C 67.5 39.117188 66.382812 38 65 38 C 63.621094 38 62.5 39.117188 62.5 40.5 Z M 62.5 40.5 "/>
<path style=" stroke:none;fill-rule:nonzero;fill:rgb(75.294119%,10.980392%,15.686275%);fill-opacity:1;" d="M 65 25 C 63.792969 25 62.582031 25.046875 61.5 25.132812 C 59.335938 25.3125 58.003906 25.644531 58 26 L 58 34 C 58.003906 33.644531 59.335938 33.3125 61.5 33.132812 C 62.582031 33.046875 63.792969 33 65 33 C 66.210938 33 67.417969 33.046875 68.5 33.132812 C 70.664062 33.3125 72 33.644531 72 34 L 72 26 C 72 25.644531 70.664062 25.3125 68.5 25.132812 C 67.417969 25.046875 66.210938 25 65 25 Z M 65 25 "/>
<path style=" stroke:none;fill-rule:nonzero;fill:rgb(75.294119%,10.980392%,15.686275%);fill-opacity:1;" d="M 65 47 C 63.792969 47 62.582031 47.046875 61.5 47.132812 C 59.335938 47.3125 58.003906 47.644531 58 48 L 58 50 C 58.003906 49.644531 59.335938 49.3125 61.5 49.132812 C 62.582031 49.046875 63.792969 49 65 49 C 66.210938 49 67.417969 49.046875 68.5 49.132812 C 70.664062 49.3125 72 49.644531 72 50 L 72 48 C 72 47.644531 70.664062 47.3125 68.5 47.132812 C 67.417969 47.046875 66.210938 47 65 47 Z M 65 47 "/>
<path style=" stroke:none;fill-rule:nonzero;fill:rgb(100%,47.058824%,0%);fill-opacity:1;" d="M 32 20 L 38 20 L 38 52 L 32 52 Z M 32 20 "/>
<path style=" stroke:none;fill-rule:nonzero;fill:rgb(87.843138%,10.588235%,14.117648%);fill-opacity:1;" d="M 44 24 L 48 24 L 48 52 L 44 52 Z M 44 24 "/>
<path style=" stroke:none;fill-rule:nonzero;fill:rgb(10.196079%,37.254903%,70.588237%);fill-opacity:1;" d="M 28 22 L 32 22 L 32 52 L 28 52 Z M 28 22 "/>
<path style=" stroke:none;fill-rule:nonzero;fill:rgb(77.64706%,27.450982%,0%);fill-opacity:1;" d="M 37 48 C 37 49.105469 36.105469 50 35 50 C 33.894531 50 33 49.105469 33 48 C 33 46.894531 33.894531 46 35 46 C 36.105469 46 37 46.894531 37 48 Z M 37 48 "/>
<path style=" stroke:none;fill-rule:nonzero;fill:rgb(18.039216%,76.078433%,49.411765%);fill-opacity:1;" d="M 41 17 C 41.519531 17 42.035156 17.042969 42.5 17.132812 C 43.429688 17.3125 44 17.644531 44 18 L 44 52 L 38 52 L 38 18 C 38 17.644531 38.574219 17.3125 39.5 17.132812 C 39.964844 17.046875 40.484375 17 41 17 Z M 41 17 "/>
<path style=" stroke:none;fill-rule:nonzero;fill:rgb(87.058824%,86.666667%,85.490197%);fill-opacity:1;" d="M 53 21 C 50.238281 21 48 21.449219 48 22 L 48 52 L 58 52 L 58 22 C 58 21.449219 55.761719 21 53 21 Z M 53 21 "/>
<path style=" stroke:none;fill-rule:nonzero;fill:rgb(36.862746%,36.078432%,39.215687%);fill-opacity:1;" d="M 53 24 C 50.238281 24 48 24.449219 48 25 L 48 27 C 48 26.449219 50.238281 26 53 26 C 55.761719 26 58 26.449219 58 27 L 58 25 C 58 24.449219 55.761719 24 53 24 Z M 53 24 "/>
<path style=" stroke:none;fill-rule:nonzero;fill:rgb(36.862746%,36.078432%,39.215687%);fill-opacity:1;" d="M 53 44 C 50.238281 44 48 44.449219 48 45 L 48 49 C 48 48.449219 50.238281 48 53 48 C 55.761719 48 58 48.449219 58 49 L 58 45 C 58 44.449219 55.761719 44 53 44 Z M 53 44 "/>
<path style=" stroke:none;fill-rule:nonzero;fill:rgb(14.901961%,63.529414%,41.176471%);fill-opacity:1;" d="M 41 25 C 40.484375 25 39.964844 25.042969 39.5 25.132812 C 38.574219 25.3125 38 25.644531 38 26 L 38 42 C 38 41.644531 38.574219 41.3125 39.5 41.132812 C 39.964844 41.046875 40.484375 41 41 41 C 41.519531 41 42.035156 41.042969 42.5 41.132812 C 43.429688 41.3125 44 41.644531 44 42 L 44 26 C 44 25.644531 43.429688 25.3125 42.5 25.132812 C 42.035156 25.046875 41.519531 25 41 25 Z M 41 25 "/>
<path style=" stroke:none;fill-rule:nonzero;fill:rgb(36.862746%,36.078432%,39.215687%);fill-opacity:1;" d="M 52 30 L 54 30 L 54 40 L 52 40 Z M 52 30 "/>
<path style=" stroke:none;fill-rule:nonzero;fill:rgb(60.392159%,60.000002%,58.823532%);fill-opacity:1;" d="M 52 30 L 54 30 L 54 40 L 52 40 Z M 52 30 "/>
<path style=" stroke:none;fill-rule:nonzero;fill:rgb(23.921569%,21.960784%,27.450982%);fill-opacity:1;" d="M 59 63 C 58.484375 63 57.964844 63.042969 57.5 63.132812 C 56.574219 63.3125 56 63.644531 56 64 L 56 96 L 62 96 L 62 64 C 62 63.644531 61.429688 63.3125 60.5 63.132812 C 60.035156 63.046875 59.519531 63 59 63 Z M 59 63 "/>
<path style=" stroke:none;fill-rule:nonzero;fill:rgb(96.470588%,82.745099%,17.647059%);fill-opacity:1;" d="M 72 66 L 62 66 L 62 96 L 72 96 Z M 72 66 "/>
<path style=" stroke:none;fill-rule:nonzero;fill:rgb(20.784314%,51.764709%,89.411765%);fill-opacity:1;" d="M 56 62 L 44 62 L 44 96 L 56 96 Z M 56 62 "/>
<path style=" stroke:none;fill-rule:nonzero;fill:rgb(46.666667%,46.27451%,48.235294%);fill-opacity:1;" d="M 72 90 L 62 90 L 62 92 L 72 92 Z M 72 90 "/>
<path style=" stroke:none;fill-rule:nonzero;fill:rgb(46.666667%,46.27451%,48.235294%);fill-opacity:1;" d="M 72 93 L 62 93 L 62 94 L 72 94 Z M 72 93 "/>
<path style=" stroke:none;fill-rule:nonzero;fill:rgb(10.196079%,37.254903%,70.588237%);fill-opacity:1;" d="M 54 66 L 46 66 L 46 70 L 54 70 Z M 54 66 "/>
<path style=" stroke:none;fill-rule:nonzero;fill:rgb(92.941177%,20%,23.137255%);fill-opacity:1;" d="M 28 62 L 36 62 L 36 96 L 28 96 Z M 28 62 "/>
<path style=" stroke:none;fill-rule:nonzero;fill:rgb(92.941177%,20%,23.137255%);fill-opacity:1;" d="M 72 66 L 80 66 L 80 96 L 72 96 Z M 72 66 "/>
<path style=" stroke:none;fill-rule:nonzero;fill:rgb(100%,100%,100%);fill-opacity:1;" d="M 36 66 L 44 66 L 44 96 L 36 96 Z M 36 66 "/>
<path style=" stroke:none;fill-rule:nonzero;fill:rgb(75.294119%,38.039216%,79.607844%);fill-opacity:1;" d="M 36 85 L 44 85 L 44 96 L 36 96 Z M 36 85 "/>
<path style=" stroke:none;fill-rule:nonzero;fill:rgb(36.862746%,36.078432%,39.215687%);fill-opacity:1;" d="M 36 66 L 28 66 L 28 72 L 36 72 Z M 36 66 "/>
<path style=" stroke:none;fill-rule:nonzero;fill:rgb(36.862746%,36.078432%,39.215687%);fill-opacity:1;" d="M 36 91 L 28 91 L 28 93.984375 L 36 93.984375 Z M 36 91 "/>
<path style=" stroke:none;fill-rule:nonzero;fill:rgb(36.862746%,36.078432%,39.215687%);fill-opacity:1;" d="M 36 88 L 28 88 L 28 89 L 36 89 Z M 36 88 "/>
<path style=" stroke:none;fill-rule:nonzero;fill:rgb(75.294119%,38.039216%,79.607844%);fill-opacity:1;" d="M 36 81 L 44 81 L 44 83 L 36 83 Z M 36 81 "/>
<path style=" stroke:none;fill-rule:nonzero;fill:rgb(20.784314%,51.764709%,89.411765%);fill-opacity:1;" d="M 80 62 L 84 62 L 84 96 L 80 96 Z M 80 62 "/>
<path style=" stroke:none;fill-rule:nonzero;fill:rgb(10.196079%,37.254903%,70.588237%);fill-opacity:1;" d="M 80 64 L 84 64 L 84 70 L 80 70 Z M 80 64 "/>
<path style=" stroke:none;fill-rule:nonzero;fill:rgb(10.196079%,37.254903%,70.588237%);fill-opacity:1;" d="M 80 72 L 84 72 L 84 74 L 80 74 Z M 80 72 "/>
<path style=" stroke:none;fill-rule:nonzero;fill:rgb(56.862748%,25.490198%,67.450982%);fill-opacity:1;" d="M 97 63 C 96.484375 63 95.964844 63.042969 95.5 63.132812 C 94.574219 63.3125 94 63.644531 94 64 L 94 96 L 100 96 L 100 64 C 100 63.644531 99.429688 63.3125 98.5 63.132812 C 98.035156 63.046875 97.519531 63 97 63 Z M 97 63 "/>
<path style=" stroke:none;fill-rule:nonzero;fill:rgb(34.117648%,89.019608%,53.725493%);fill-opacity:1;" d="M 89 66 C 88.136719 66 87.273438 66.042969 86.5 66.132812 C 84.953125 66.3125 84.003906 66.644531 84 67 L 84 96 L 94 96 L 94 67 C 94 66.644531 93.046875 66.3125 91.5 66.132812 C 90.726562 66.046875 89.863281 66 89 66 Z M 89 66 "/>
<path style=" stroke:none;fill-rule:nonzero;fill:rgb(38.039216%,20.784314%,51.372552%);fill-opacity:1;" d="M 96 68 L 98 68 L 98 92 L 96 92 Z M 96 68 "/>
<path style=" stroke:none;fill-rule:nonzero;fill:rgb(64.705884%,11.372549%,17.647059%);fill-opacity:1;" d="M 75 78 L 77 78 L 77 88 L 75 88 Z M 75 78 "/>
<path style=" stroke:none;fill-rule:nonzero;fill:rgb(64.705884%,11.372549%,17.647059%);fill-opacity:1;" d="M 72 70 L 80 70 L 80 73 L 72 73 Z M 72 70 "/>
</g>
</svg>
